<?xml version="1.0" encoding="utf-8"?>
<!-- Generator: Adobe Illustrator 27.5.0, SVG Export Plug-In . SVG Version: 6.00 Build 0)  -->
<svg version="1.1" id="Layer_1" xmlns="http://www.w3.org/2000/svg" xmlns:xlink="http://www.w3.org/1999/xlink" x="0px" y="0px"
	 viewBox="0 0 3000 2000" style="enable-background:new 0 0 3000 2000;" xml:space="preserve">
<rect style="fill:#FFFFFF;" width="3000" height="2000"/>
<g>
	<path style="fill:#E9F3FE;" d="M2801.063,1669.906c0,0-2591.249,0.398-2591.386,0.307c-33.804-25.746-58.229-59.731-69.305-101.703
		c-27.879-105.561,34.042-241.625,156.629-350.049c112.703-99.686,205.08-133.413,175.766-307.014
		c-11.581-68.641-48.297-139.215-11.126-245.082c58.612-166.899,258.354-265.556,311.363-287.604
		c207.078-86.188,535.966-70.754,739.641,4.577c0.034,0.022,0.068,0.034,0.114,0.045
		c203.651,75.358,292.803,204.057,367.497,282.982c33.589,35.588,67.702,65.027,110.549,67.821
		c62.559,4.07,151.787-29.738,260.249-39.725c80.956-7.452,172.479-1.598,271.204,43.342
		c163.61,73.533,341.037,245.94,369.369,483.533C2910.391,1377.316,2869.876,1527.998,2801.063,1669.906z"/>
	<path style="fill:#B5453C;" d="M2238.176,1665.002h86.676c0,0,3.24-13.824-2.45-23.231c-5.036-8.324-3.106-13.065,0.624-19.951
		c-3.926,1.606-9.006,3.069-14.599,2.749c-4.318-0.248-8.884-2.209-12.89-4.534c-3.73,4.253-19.703,22.356-24.695,25.942
		C2265.178,1650.047,2239.92,1648.598,2238.176,1665.002z"/>
	<path style="fill:#233862;" d="M2263.852,1554.666l18.525,68.715c0,0,35.94,9.543,48.24,0l-4.16-75.305L2263.852,1554.666z"/>
	<path style="fill:#82B378;" d="M2686.678,1668.577h-389.953c-22.573,0-40.872-18.299-40.872-40.871v-172.7
		c0-22.572,18.299-40.871,40.872-40.871h389.953c22.573,0,40.872,18.299,40.872,40.871v172.7
		C2727.55,1650.278,2709.251,1668.577,2686.678,1668.577z"/>
	<path style="fill:#A8D29F;" d="M2686.678,1668.577h-282.471c-22.573,0-40.872-18.299-40.872-40.871v-172.7
		c0-22.572,18.299-40.871,40.872-40.871h282.471c22.573,0,40.872,18.299,40.872,40.871v172.7
		C2727.55,1650.278,2709.251,1668.577,2686.678,1668.577z"/>
	<g>
		<path style="fill:#92C4FF;" d="M2053.856,1506.77H1035.006c-34.984,0-63.344-28.359-63.344-63.344V852.421
			c0-34.472,27.945-62.417,62.418-62.417h1019.777c34.983,0,63.344,28.36,63.344,63.344v590.078
			C2117.2,1478.41,2088.84,1506.77,2053.856,1506.77z"/>
		<path style="opacity:0.8;fill:#FFFFFF;" d="M2092.128,865.396v554.04c0,38.371-31.105,69.476-69.476,69.476h-962.446
			c-35.056,0-63.475-28.418-63.475-63.475V864.518c0-32.498,27.025-58.835,60.359-58.835h973.776
			C2064.699,805.683,2092.128,832.414,2092.128,865.396z"/>
		<path style="opacity:0.6;fill:#92C4FF;" d="M2092.128,866.958v8.717H996.732v-9.619c0-33.347,27.025-60.373,60.359-60.373h973.776
			C2064.699,805.683,2092.128,833.113,2092.128,866.958z"/>
		<path style="opacity:0.6;fill:#92C4FF;" d="M2092.128,1427.637v-8.717H996.732v9.618c0,33.348,27.025,60.373,60.359,60.373
			h973.776C2064.699,1488.911,2092.128,1461.481,2092.128,1427.637z"/>
	</g>
	<g>
		<path style="fill:#1F426D;" d="M741.635,1639.291c0,0,22.893,12.115,30.491,13.565c9.355,1.783,15.918,1.552,15.918,12.146
			h-71.295c0,0-6.726-12.932-3.027-20.666C717.421,1636.602,741.635,1639.291,741.635,1639.291z"/>
		<path style="fill:#1F426D;" d="M865.025,1636.217c0,0,22.869,11.31,29.962,14.393c8.744,3.799,17.488,0.789,18.385,14.393h-62.529
			c0,0-6.727-12.932-3.027-20.666S865.025,1636.217,865.025,1636.217z"/>
		<path style="fill:#4F9999;" d="M692.759,1566.875l53.583,75.514c0,0-16.815,9.01-39.011,3.629c0,0-61.206-45.042-57.171-56.823
			C654.197,1577.412,692.759,1566.875,692.759,1566.875z"/>
		<path style="fill:#5EA7AA;" d="M423.197,1617.775c0,0-1.047,47.227,29.892,47.227c30.94,0,82.057,0.022,82.057,0.022
			l-8.744-84.249L423.197,1617.775z"/>
		<path style="fill:#ED985F;" d="M473.886,1382.358c-2.785,15.47-9,32.661-22.68,40.72c-19.801,11.636-57.992-17.058-78.694-34.868
			c4.534-1.211,9.591-2.462,15.026-3.659c4.21-7.909,9.403-21.375,8.811-39.037c-0.054-1.48-0.148-2.973-0.283-4.506
			c2.838-1.508,8.166-4.346,13.869-7.372l27.604,13.358c0,0,0.78,3.482,1.668,9.98c0.484,3.524,1.009,7.937,1.466,13.156
			c0.215,2.448,0.418,5.098,0.579,7.909c0.753,0,1.506,0.015,2.246,0.027C454.099,1378.27,464.47,1379.533,473.886,1382.358z"/>
		<path style="fill:#ED985F;" d="M372.515,1388.207c0,0-40.941,8.501-47.443,25.661c-9.689,25.571,13.452,116.374,13.452,143.006
			c0,26.63-1.793,74.681,5.381,98.444h12.238c0,0,14.842-81.003,14.842-93.726S372.515,1388.207,372.515,1388.207z"/>
		<path style="fill:#6BB7BF;" d="M721.968,1544.724c0,0-14.945,12.834-36.684,30.227c-1.493,1.211-3.026,2.422-4.587,3.659v0.014
			c-0.013,0-0.013,0-0.013,0c-48.455,38.473-125.427,95.187-151.146,88.999c-30.334-7.292-17.38-62.7-10.479-85.986
			c1.883-6.321,3.309-10.277,3.309-10.277c0-4.479,141.69-60.237,170.397-52.543c4.667,1.251,8.595,2.784,11.878,4.466
			c7.842,4.01,12.134,8.893,14.474,12.981C721.86,1541.038,721.968,1544.724,721.968,1544.724z"/>
		<path style="fill:#6BB7BF;" d="M877.271,1638.282c-3.47,10.991-34.639,16.13-34.639,16.13
			c-101.441-23.878-146.303-60.306-161.935-75.789c-0.013,0-0.013,0-0.013,0c-4.103-4.076-6.188-6.698-6.753-7.265l30.711-48.077
			c4.856,4.479,9.685,8.811,14.474,12.981C803.944,1610.303,877.271,1638.282,877.271,1638.282z"/>
		<path style="fill:#ED985F;" d="M343.904,1655.318c0,0-19.281-0.741-27.689,1.948c-8.408,2.69-16.143,7.735-16.143,7.735h55.521
			l0.548-9.684H343.904z"/>
		<path style="fill:#FFB27D;" d="M473.88,1382.362c0,0,87.947,86.201,112.161,95.897c24.213,9.697,111.449,29.427,111.449,29.427
			l-4.73,11.134c0,0-100.189-0.372-118.7-6.65c-18.511-6.277-105.272-56.498-110.318-73.537
			C458.694,1421.594,473.88,1382.362,473.88,1382.362z"/>
		<path style="fill:#5EA7AA;" d="M680.684,1578.623c-48.455,38.473-125.427,95.187-151.146,88.999
			c-30.334-7.292-17.38-62.7-10.479-85.986l7.345-0.86C526.403,1580.775,594.174,1597.093,680.684,1578.623z"/>
		<path style="fill:#5EA7AA;" d="M842.632,1654.412c-101.441-23.878-146.303-60.306-161.935-75.789v-0.014
			c0.148-0.215,1.453-1.977,4.587-3.659C697.445,1568.386,737.088,1562.938,842.632,1654.412z"/>
		<path style="fill:#F99746;" d="M570.808,1468.882c0,0-1.573,5.085-5.609,11.326c-4.654,7.21-12.577,15.968-25.114,20.259
			l-39.24-26.298l0.013,0.026c0.202,1.049,7.116,34.692,11.085,39.992c4.036,5.382,40.814,42.791,40.814,42.791
			s-12.336,27.159-37.276,50.835c-24.186,22.949-60.224,42.616-108.355,31.021c0,0-35.15-100.809-34.612-120.019
			c0,0-0.175-0.04-0.498-0.121c-4.977-1.184-46.087-11.38-48.454-24.012c0,0-5.058-43.947-2.287-71.026
			c1.009-9.928,3.081-17.595,6.834-20.003c14.003-8.96,54.036-17.864,54.036-17.864s13.277,10.397,39.899,4.304
			c6.417-1.466,11.596-2.892,15.766-4.21c13.129-4.156,16.223-7.236,16.223-7.236s24.281-0.324,37.733,11.783
			C505.216,1402.537,570.808,1468.882,570.808,1468.882z"/>
		<path style="fill:#ED7D2B;" d="M565.198,1480.208c-4.654,7.21-12.577,15.968-25.114,20.259l-39.24-26.298
			C506.696,1466.205,549.648,1476.254,565.198,1480.208z"/>
		<path style="fill:#ED7D2B;" d="M552.756,1556.979c0,0-12.336,27.159-37.276,50.835c-24.186,22.949-60.224,42.616-108.355,31.021
			c0,0-35.15-100.809-34.612-120.019c0,0-0.175-0.04-0.498-0.121c-4.977-1.184-46.087-11.38-48.454-24.012
			c0,0-5.058-43.947-2.287-71.026c1.009-9.928,3.081-17.595,6.834-20.003c14.003-8.96,54.036-17.864,54.036-17.864
			s13.277,10.397,39.899,4.304c6.417-1.466,11.596-2.892,15.766-4.21c7.318,2.232,16.573,2.449,24.899,2.327
			c13.668-0.215,9.888,95.039,16.466,122.238C485.751,1537.661,552.756,1556.979,552.756,1556.979z"/>
		<path style="fill:#FFB27D;" d="M440.673,1370.131c0.215,2.448,0.418,5.098,0.579,7.909c-9.215-2.864-11.932-22.356-11.932-22.356
			c4.049-0.794,7.318-0.175,9.887,1.291C439.691,1360.499,440.216,1364.911,440.673,1370.131z"/>
		<path style="fill:#FFB27D;" d="M443.498,1378.067c-0.645,0.229-1.399,0.242-2.246-0.027
			C442.005,1378.04,442.758,1378.055,443.498,1378.067z"/>
		<path style="fill:#FFB27D;" d="M443.979,1358.541c0,0-48.994,5.634-52.032-24.93c-3.04-30.566-11.41-50.423,19.743-55.313
			c31.153-4.889,38.399,6.168,41.895,16.123C457.081,1304.377,456.646,1356.288,443.979,1358.541z"/>
		<path style="fill:#2B478B;" d="M463.179,1269.138c0,0,4.708,21.747-13.116,32.172c-17.824,10.426-19.169,20.851-24.886,18.833
			c-5.717-2.018-13.452,0.337-10.089,6.054s6.164,9.176,6.949,12.322c0.786,3.147-10.312,17.944-17.374,18.281
			s-11.435,3.777-18.16-23.165c-6.727-26.943-12.71-46.07,2.108-59.117C408.474,1257.03,457.462,1272.613,463.179,1269.138z"/>
		<path style="fill:#FFB27D;" d="M697.489,1507.687c0,0,25.761,10.041,28.451,10.401c2.691,0.36,5.526,28.704,5.526,28.704
			l-38.708-27.972L697.489,1507.687z"/>
	</g>
	<path style="fill:#B5453C;" d="M2085.985,1665.002h98.627c0,0,3.688-15.73-2.788-26.436c-5.732-9.471-3.535-14.867,0.71-22.702
		c-4.468,1.829-10.248,3.493-16.61,3.128c-4.915-0.282-10.111-2.512-14.668-5.158c-4.244,4.84-22.421,25.439-28.101,29.521
		C2116.71,1647.986,2087.97,1646.335,2085.985,1665.002z"/>
	<path style="fill:#233862;" d="M2529.56,1347.07c0,0-98.218-12.839-142.08-1.821c-6.296,1.581-11.202,4.082-14.979,7.208
		c-39.771,19.262-146.183,71.629-163.194,88.641c-2.419,2.42-3.746,4.81-4.197,7.139c-0.609,0.121-0.941,0.198-0.941,0.198
		s-34.705,123.41-70.971,181.626c0,0,34.754,10.815,53.841,2.227c0,0,60.665-84.6,74.171-134.199
		c3.966-14.564,14.68-26.34,28.929-31.319c48.19-16.839,77.282-28.69,94.679-36.606c18.639-8.482,38.806-13.04,59.279-13.436
		c16.524-0.319,33.808-1.02,49.265-2.181C2540.69,1410.989,2529.56,1347.07,2529.56,1347.07z"/>
	<path style="fill:#ED7D2B;" d="M2530.698,1187.239c-5.888,23.102-3.199,107.938,2.069,133.485
		c4.523,21.96-9.096,43.557-30.922,48.711c-26.34,6.213-55.944,7.443-78.43,3.083c-20.957-4.057-35.74-12.98-35.94-27.268
		c-0.22-16.232,2.615-31.264,4.925-45.369c2.338-14.325,4.143-27.677,1.66-40.359c-2.605-13.333-9.209-53.702-9.305-86.255
		c0-0.659,0-1.317,0.01-1.976c0.076-14.727,1.555-27.657,5.439-35.493c0.373-0.744,0.82-1.431,1.355-2.062
		c1.174-1.394,2.739-2.528,4.619-3.464c1.536-0.764,3.283-1.394,5.211-1.899c3.807-0.993,8.313-1.536,13.246-1.784
		c5.345-0.258,11.194-0.162,17.217,0.086c6.041,3.903,29.079,18.648,38.537,16.807
		C2470.485,1143.463,2546.194,1126.437,2530.698,1187.239z"/>
	<path style="fill:#F99746;" d="M2423.416,1372.519c-20.957-4.057-35.74-12.98-35.94-27.268c-0.22-16.232,2.615-31.264,4.925-45.369
		c2.176-3.111,4.763-6.013,7.759-8.618C2400.159,1291.264,2428.895,1348.754,2423.416,1372.519z"/>
	<path style="fill:#2E3552;" d="M2834.334,1673.179H110.028c-2.531,0-4.601-2.071-4.601-4.602l0,0c0-2.53,2.071-4.602,4.601-4.602
		h2724.306c2.53,0,4.602,2.071,4.602,4.602l0,0C2838.936,1671.107,2836.864,1673.179,2834.334,1673.179z"/>
	<g>
		<g>
			<path style="fill:#82B378;" d="M1699.229,970.54c-5.926,5.022-17.917,14.443-22.704,18.447l12.132,151.728l-124.875-55.819
				l-22.705,18.448c-3.019,11.958-4.629,24.477-4.629,37.371c0,84.063,68.146,152.209,152.209,152.209
				s152.209-68.146,152.209-152.209S1783.292,970.54,1699.229,970.54z"/>
			<path style="fill:#AA413E;" d="M1650.438,957.767c-65.751,5.186-119.744,52.151-135.447,114.356l147.579,37.371l22.705-18.447
				L1650.438,957.767z"/>
		</g>
		<g>
			<path style="fill:#A8D29F;" d="M1711.362,970.059c-4.084,0-8.13,0.166-12.133,0.481l12.133,151.728l-147.58-37.372
				c-3.019,11.958-4.629,24.477-4.629,37.372c0,84.063,68.146,152.209,152.209,152.209s152.209-68.146,152.209-152.209
				S1795.425,970.059,1711.362,970.059z"/>
			<path style="fill:#C65447;" d="M1673.143,939.319c-65.751,5.186-119.744,52.151-135.448,114.356l147.58,37.372L1673.143,939.319z
				"/>
		</g>
	</g>
	<g>
		<g>
			<g>
				<path style="fill:#FFB27D;" d="M1872.429,1657.806c0,0,19.368-22.139,24.847-32.219l15.068-27.829l19.727,4.879l-25.036,35.479
					l-26.152,22.129L1872.429,1657.806z"/>
				<path style="fill:#163560;" d="M1997.161,1114.065c4.549-2.586,10.002-2.868,13.815-2.643c-0.981-1.014-2.913-1.383-2.913-1.383
					c2.365-0.352,7.644,1.994,7.644,1.994c32.896-12.676,38.067,35.762,37.376,47.016c-0.686,11.252,11.055,14.927,28.17,23.793
					c32.656,16.918,35.524,39.571,35.524,39.571c-0.254,0.149-0.52,0.321-0.803,0.516c-1.619-2.745-4.955-7.899-7.768-8.678
					c0.106,0.25,3.324,7.097,4.523,11.021c-9.633,7.328-27.655,23.567-40.217,35.08c0.057-2.25-0.033-5.445-0.855-7.132
					l-1.552,9.345c-6.722,6.179-11.356,10.525-11.356,10.525c0.831-9.094-41.129-57.083-63.02-71.456
					c-5.329-7.846-7.223-21.704-7.365-22.795c0.92,10.988,2.8,17.152,4.48,20.623
					C1974.309,1182.402,1985.101,1120.919,1997.161,1114.065z"/>
				<path style="fill:#9C5F33;" d="M1997.026,1202.351c-0.109,0.049,10.57,5.594,18.603,3.396
					c7.557-2.06,12.493-11.856,12.389-11.879c-3.199-0.636-4.122-5.033-4.055-23.929l-1.446,0.285l-24.323,4.816
					c0,0,0.554,7.654,0.57,14.865C1998.779,1195.961,1998.412,1201.703,1997.026,1202.351z"/>
				<path style="fill:#A8D29F;" d="M2024.532,1121.998c0,0-11.999-12.774-27.063-0.654
					C1997.47,1121.344,2006.236,1119.828,2024.532,1121.998z"/>
				<path style="fill:#163560;" d="M2025.028,1167.576c0,0,7.133-11.27,8.845-20.906c1.223-6.881-2.281-32.383-27.909-28.71
					c0,0-7.443,0.733-14.44,5.459c-5.563,3.758-13.594,11.871-4.615,34.125l2.332,7.518L2025.028,1167.576z"/>
				<path style="fill:#80BDCC;" d="M1901.248,1615.861l12.894,0.395l13.956,0.428c0,0,32.235-35.89,50.317-93.424
					c0.421-1.337,0.865-2.69,1.337-4.061c9.896-28.854,30.41-65.072,41.221-97.855c1.721-5.223,3.266-10.137,4.652-14.789
					c0.443-1.49,0.877-2.953,1.287-4.395c7.967-27.682,10.274-45.856,12.4-65.275l-78.064,0.624
					C1961.248,1337.509,1948.646,1470.109,1901.248,1615.861z"/>
				<path style="fill:#E7F0FD;" d="M1966.728,1345.738c0,0,33.424,16.981,73.149,4.481c0.468-0.147-2.624-153.552-13.89-157.777
					c-2.592,3.228-10.266,6.456-17.138,6.302c-7.913-0.175-10.479-3.562-10.068-7.261c-8.433,4.692-15.161,9.125-15.161,9.125
					C1976.453,1213.058,1966.728,1345.738,1966.728,1345.738z"/>
				<path style="fill:#5F9AA8;" d="M2039.313,1296.793c3.413,4.83,9.955,34.186,26.232,37.875
					c-8.388-20.922-14.756-30.095-15.75-36.527c-1.846-12.008-1.887-24.433-0.967-36.151c-5.448-9.55-9.516-16.098-9.516-16.098
					c-0.428-1.545-8.658-26.995-11.296-4.246C2025.385,1264.401,2035.501,1291.391,2039.313,1296.793z"/>
				<path style="fill:#AB7041;" d="M1993.648,1181.869c0,0,32.202,0.531,32.225-19.528s4.193-33.5-16.366-34.688
					s-24.563,6.462-26.199,13.156C1981.672,1147.503,1985.271,1181.214,1993.648,1181.869z"/>
				<path style="fill:#163560;" d="M1994.84,1127.162c0,0,8.817,23.533,22.349,27.013s19.4-0.146,19.4-0.146
					s-2.935-13.314-5.089-27.707C2031.5,1126.321,2001.49,1115.961,1994.84,1127.162z"/>
				<path style="fill:#163560;" d="M1997.025,1129.072c0,0-6.585,5.254-8.19,10.362s-2.327,15.623-5.393,15.266
					c0,0-6.643-15.995,0.823-25.044C1992.182,1120.062,1997.025,1129.072,1997.025,1129.072z"/>
				<path style="fill:#AB7041;" d="M1864.065,1215.161c0,0-4.54-16.361-22.527-14.05c-2.063,0.646-8.096,3.053-4.24,9.51
					c2.842,4.76,4.073,2.304,8.543,8.701c4.47,6.396,9.322,7.842,14.866,7.076L1864.065,1215.161z"/>
				<path style="fill:#FFB27D;" d="M2017.774,1654.492c1.097-6.027,3.182-16.451,3.182-16.451l-0.483-36.984h22.462l-8.405,35.399
					c-0.173,1.643-0.632,8.02,1.727,14.782c0,0,2.158,9.829-7.522,10.012C2019.054,1661.433,2016.68,1660.52,2017.774,1654.492z"/>
				<path style="fill:#233862;" d="M2016.86,1666.057h20.132c1.004-5.265-0.736-14.804-0.736-14.804
					c-10.955,10.618-17.816-0.266-17.816-0.266C2016.805,1655.138,2016.838,1664.506,2016.86,1666.057z"/>
				<path style="fill:#233862;" d="M1863.028,1666.127h24.816c2.153-2.003,4.218-5.947,6.728-11.102
					c1.461-2.983,4.729-4.629,8.082-5.533v16.635h5.144l4.72-17.694c3.162-5.952,0.741-11.305-1.483-16.008
					c-2.588-0.005-10.03,1.767-23.218,16.989c-4.333,4.993-9.114,6.783-13.866,6.627c-0.067,0.045-0.134,0.078-0.195,0.105
					C1866.319,1659.578,1863.842,1663.783,1863.028,1666.127z"/>
				<path style="fill:#415DA5;" d="M1864.065,1215.161c0,0,21.138,11.818,28.688,15.228c4.304,1.942,14.209,6.58,21.19,9.858
					c4.439,2.086,9.719,0.944,12.909-2.782c11.46-13.387,41.289-42.42,71.928-45.981c0,0-18.632,46.028-19.18,55.343
					c-0.548,9.315-2.191,152.327-2.191,152.327s1.096,6.575-11.506,3.835c-12.604-2.739-15.891-5.479-15.891-5.479
					s12.054-88.218,8.767-118.902c-0.647-6.048-0.058-12.849,1.302-19.87c-18.665,11.354-40.753,16.4-40.753,16.4
					s-16.514-7.203-39.086-23.744c-7.086-5.191-19.536-24.994-19.536-24.994L1864.065,1215.161z"/>
				<path style="fill:#5F9AA8;" d="M1914.142,1616.256l13.956,0.428c0,0,32.235-35.89,50.317-93.424
					c0.421-1.337,0.865-2.69,1.337-4.061c9.896-28.854,30.41-65.072,41.221-97.855c1.721-5.223,3.266-10.137,4.652-14.789
					c0.443-1.49,0.877-2.953,1.287-4.395l-11.495-8.723c0,0-34.515,55.89-45.199,108.486
					C1960.936,1547.61,1923.764,1602.585,1914.142,1616.256z"/>
				<path style="fill:#80BDCC;" d="M2014.217,1506.821c-0.197,25.578,1.096,84.383,4.428,108.728h12.361
					c6.832,0,10.241-0.098,10.241-0.098c8.355-42.328,14.301-77.353,18.63-107.533c3.551-24.768,6.706-46,9.133-64.278
					c2.445-18.395,4.144-33.798,4.752-46.812c0.092-2.049,0.164-4.043,0.202-5.978c0.038-1.944,0.05-3.835,0.033-5.671
					l-67.451-6.575C2007.396,1423.42,2014.326,1491.956,2014.217,1506.821z"/>
				<path style="fill:#5F9AA8;" d="M2031.006,1615.549c6.832,0,10.241-0.098,10.241-0.098c8.355-42.328,14.301-77.353,18.63-107.533
					c3.551-24.768,6.706-46,9.133-64.278c2.445-18.395,4.144-33.798,4.752-46.812l-24.751,14.56c0,0,15.798,5.572,9.771,47.764
					C2052.753,1501.343,2039.395,1609.576,2031.006,1615.549z"/>
				<path style="fill:#415DA5;" d="M2027.822,1396.414c0,0,4.746,17.164,21.185,14.972c16.439-2.187,39.816-12.054,39.816-12.054
					s-7.028-22.195-15.758-51.358c-0.095-0.307-0.184-0.618-0.279-0.932c-10.308-34.433-22.903-78.266-29.167-106.786
					c-0.134-0.608-0.263-1.211-0.391-1.803c-1.729-8.043-2.917-14.759-3.354-19.573l-13.889-26.44c0,0-20.081,45.618-21.18,57.126
					C2003.713,1261.072,2027.822,1396.414,2027.822,1396.414z"/>
				<path style="fill:#AB7041;" d="M2044.234,1247.852l-18.247-55.409c0.048,0.022,22.98,6.729,34.392,12.494
					c0,0,7.133,9.195,11.546,30.409c0,0,4.662,50.932-5.749,69.562c0,0-32.876,6.576-85.479-11.506v-12.055
					c0,0,57.534,3.014,69.314,4.383L2044.234,1247.852z"/>
				<path style="fill:#2B478B;" d="M2030.131,1273.674c0.725,18.38,5.004,53.828,42.655,73.368
					c-10.308-34.433-22.903-78.266-29.167-106.786C2036.791,1250.736,2029.757,1263.979,2030.131,1273.674z"/>
				<path style="fill:#415DA5;" d="M2025.987,1192.442c0,0,33.614,2.33,41.649,20.229c8.037,17.898,10.594,77.441,0.365,94.976
					c0,0-14.081,4.011-38.987-0.647c-0.305-0.057-0.611-0.115-0.921-0.175c0,0-7.944-19.451-0.821-23.287
					c0,0,21.004,1.096,18.813-5.845S2025.987,1192.442,2025.987,1192.442z"/>
				<path style="fill:#AB7041;" d="M1986.596,1284.553c0,0-4.584-5.555-5.561-11.227s-4.011-9.877-11.922-10.916
					s-11.312-1.151-11.292,1.078c0.021,2.229,6.464,17.799,17.815,27.096C1986.988,1299.882,1986.596,1284.553,1986.596,1284.553z"
					/>
			</g>
		</g>
		<path style="fill:#233862;" d="M1846.686,1210.724c0.424,0.015,0.852-0.161,1.143-0.515c0.497-0.603,0.412-1.496-0.192-1.994
			l-98.903-81.57c-0.604-0.497-1.497-0.411-1.995,0.191c-0.498,0.604-0.412,1.496,0.191,1.994l98.904,81.571
			C1846.084,1210.607,1846.384,1210.713,1846.686,1210.724z"/>
	</g>
	<path style="fill:#163560;" d="M1623.078,1036.022c0.446,0,0.893-0.171,1.232-0.511c0.682-0.682,0.682-1.784,0-2.465
		l-78.592-78.592h-505.464c-0.963,0-1.743,0.78-1.743,1.743c0,0.963,0.78,1.743,1.743,1.743h504.021l77.571,77.571
		C1622.187,1035.852,1622.633,1036.022,1623.078,1036.022z"/>
	<path style="fill:#AFCDFB;" d="M1528.404,942.075h-473.866c-8.852,0-16.026-7.175-16.026-16.026l0,0
		c0-8.851,7.175-16.026,16.026-16.026h473.866c8.852,0,16.026,7.175,16.026,16.026l0,0
		C1544.431,934.899,1537.256,942.075,1528.404,942.075z"/>
	<path style="fill:#AFCDFB;" d="M1210.558,1378.604h-145.997c-14.387,0-26.049-11.663-26.049-26.05v-263.994
		c0-14.387,11.663-26.049,26.049-26.049h145.997c14.387,0,26.049,11.662,26.049,26.049v263.994
		C1236.607,1366.941,1224.944,1378.604,1210.558,1378.604z"/>
	<path style="fill:#AFCDFB;" d="M1455.691,1378.604h-145.997c-14.387,0-26.049-11.663-26.049-26.05v-263.994
		c0-14.387,11.663-26.049,26.049-26.049h145.997c14.387,0,26.049,11.662,26.049,26.049v263.994
		C1481.74,1366.941,1470.078,1378.604,1455.691,1378.604z"/>
	<path style="fill:#92C4FF;" d="M1212.895,1042.663h-150.671c-13.096,0-23.712-10.616-23.712-23.713l0,0
		c0-13.096,10.616-23.712,23.712-23.712h150.671c13.096,0,23.712,10.616,23.712,23.712l0,0
		C1236.607,1032.047,1225.99,1042.663,1212.895,1042.663z"/>
	<path style="fill:#92C4FF;" d="M1458.028,1033.631h-150.671c-13.096,0-23.712-10.616-23.712-23.713l0,0
		c0-13.096,10.616-23.712,23.712-23.712h150.671c13.096,0,23.712,10.616,23.712,23.712l0,0
		C1481.74,1023.015,1471.124,1033.631,1458.028,1033.631z"/>
	<g id="girl_2_11_">
		<path style="fill:#ED7D2B;" d="M1146.865,1582.873c2.304-5.399,37.444-97.55,64.71-97.545c14.614,0.002,27.65,3.353,24.578,27.406
			c-3.072,24.055-29.955,154.503-46.852,152.645C1172.404,1663.521,1146.865,1582.873,1146.865,1582.873z"/>
		<path style="fill:#B5453C;" d="M1245.947,1644.131c0,0-2.593,16.48,0,21.248h50.405c0,0-5.761-12.803-12.673-15.684
			c-6.913-2.88-13.105-7.201-13.105-7.201L1245.947,1644.131z"/>
		<path style="fill:#ED7D2B;" d="M1258.225,1501.685c0,0,13.645,131.506,15.181,142.446c0,0-21.122,4.229-27.458,0
			c-6.337-4.229-32.835-74.807-32.26-87.479C1214.264,1543.979,1258.225,1501.685,1258.225,1501.685z"/>
		<path style="fill:#F99746;" d="M1168.755,1582.873c2.305-5.399,37.444-97.55,64.711-97.545
			c14.613,0.002,27.65,3.353,24.579,27.406c-3.073,24.055-29.955,154.503-46.853,152.645
			C1194.294,1663.521,1168.755,1582.873,1168.755,1582.873z"/>
		<path style="fill:#F99746;" d="M1064.981,1601.87c0,0-10.477,60.16,34.071,63.509c44.548,3.348,105.226,2.626,112.139,0
			c6.912-2.626,28.802-54.855-12.482-65.225C1157.426,1589.785,1064.981,1601.87,1064.981,1601.87z"/>
		<path style="fill:#B5453C;" d="M1192.518,1519.463c3.628-18.541,15.453-92.616,3.628-116.451
			c-4.247-8.563-20.913-9.336-39.197-8.585c-5.69,3.674-27.37,17.554-36.275,15.821c-0.095-0.02-79.717,46.704-59.641,91.401
			c9.189,20.464,5.888,51.38,0.932,75.419c-4.262,20.672,8.561,41.003,29.104,45.848c47.893,11.297,107.262,5.122,107.641-22.762
			C1199.127,1569.378,1187.883,1543.16,1192.518,1519.463z"/>
		<path style="fill:#FFB27D;" d="M1262.076,1490.703c-3.894-3.893-15.591-4.979-22.766-5.273c-2.3-5.418-5.544-11.351-10.069-17.768
			c-24.771-35.14-34.216-71.906-41.764-68.743c-7.548,3.164-17.238,42.393-17.238,42.393s41.721,68.401,70.523,82.228
			C1259.772,1525.844,1267.837,1496.464,1262.076,1490.703z"/>
		<path style="fill:#B5453C;" d="M1185.585,1396.023c0,0,11.235,0.207,21.686,24.113c0,0-10.864,42.341-33.331,38.597
			C1151.474,1454.988,1185.585,1396.023,1185.585,1396.023z"/>
		<path style="fill:#233862;" d="M1146.244,1285.808c0,0-26.978-5.124-40.413,4.688c-24.338,17.773-25.645,79.049-34.768,88.177
			c-9.122,9.128-31.109,5.234-33.067,52.465c-1.958,47.231,8.754,51.18-4.003,72.264c-12.757,21.084,5.397,42.186,5.397,42.186
			s-7.436-11.64-4.249-20.04c0,0,15.876,22.862,26.659,29.292c29.244,17.441,61.837,11.284,77.844,0.511
			c2.353-1.583,5.049-2.521,7.846-2.986c7.948-1.319,24.637-11.776,18.518-78.034c-3.358-36.366,19.774-72.696,10.118-88.521
			c0,0,4.301,6.771,4.828,14.302c0,0,5.793-11.103-4.249-21.437c-10.043-10.334,11.78-31.722,8.549-56.491
			C1183.037,1305.177,1171.104,1286.549,1146.244,1285.808z"/>
	</g>
	<g>
		<polygon style="fill:#D86713;" points="2354.308,1297.667 2237.772,1297.667 2207.007,1225.183 2323.542,1225.183 		"/>
		<polygon style="fill:#F1A34F;" points="2356.327,1297.667 2239.792,1297.667 2209.027,1225.183 2325.563,1225.183 		"/>
		<polygon style="fill:#D0E0F7;" points="2352.05,1294.87 2243.758,1294.87 2215.17,1227.514 2323.461,1227.514 		"/>
		<polygon style="fill:#D86713;" points="2393.696,1299.998 2238.705,1299.998 2237.772,1297.667 2393.696,1297.667 		"/>
	</g>
	<g>
		<polygon style="fill:#D86713;" points="1356.61,1661.646 1473.145,1661.646 1503.91,1589.16 1387.375,1589.16 		"/>
		<polygon style="fill:#F1A34F;" points="1354.59,1661.646 1471.125,1661.646 1501.891,1589.16 1385.355,1589.16 		"/>
		<polygon style="fill:#D0E0F7;" points="1358.868,1658.849 1467.159,1658.849 1495.748,1591.491 1387.457,1591.491 		"/>
		<polygon style="fill:#D86713;" points="1317.221,1663.976 1472.213,1663.976 1473.145,1661.646 1317.221,1661.646 		"/>
	</g>
	<path style="fill:#FFB27D;" d="M2383.788,1153.76c0,0,0.484,108.337-9.695,128.011l-52.809,17.765l-3.181,13.361
		c0,0,69.351,3.108,77.621-4.172c8.271-7.28,22.269-93.257,23.541-109.715C2420.538,1182.551,2403.664,1149.865,2383.788,1153.76z"
		/>
	<path style="fill:#ED7D2B;" d="M2413.797,1194.998c-13.084,2.186-22.466-10.355-28.268-22.122c-0.268-0.524-0.516-1.06-0.764-1.584
		c-4.275-9.095-6.385-17.303-6.385-17.303c4.543-10.393,9.229-16.567,13.18-20.252c1.699-1.564,3.264-2.682,4.619-3.464
		c2.939-1.708,4.915-1.88,5.211-1.899c0.028,0,0.037,0,0.037,0s3.627,6.271,7.836,14.975
		C2418.339,1162.149,2430.116,1192.277,2413.797,1194.998z"/>
	<path style="fill:#F99746;" d="M2401.391,1128.374c-0.296,0.02-2.271,0.191-5.211,1.899c-1.88,0.936-3.445,2.07-4.619,3.464
		c-3.951,3.685-8.637,9.859-13.18,20.252c0,0,2.109,8.208,6.385,17.303l0.764,1.585c11.71-6.137,19.163-18.448,23.734-29.528
		c2.691-6.51,4.391-12.598,5.373-16.759C2409.703,1126.838,2405.197,1127.381,2401.391,1128.374z"/>
	<path style="fill:#233862;" d="M2443.222,1011.273c0,0,28.662-5.444,42.937,4.98c25.858,18.884,27.247,83.985,36.938,93.683
		c9.691,9.698-121.882,24.394-111.622,7.58c0,0-4.57,7.193-5.131,15.195c0,0-6.154-11.795,4.515-22.775
		c10.67-10.979-12.517-33.702-9.083-60.019C2404.132,1031.852,2416.809,1012.06,2443.222,1011.273z"/>
	<path style="fill:#233862;" d="M2523.097,1109.936c0,0,19.374,15.586,14.509,39.993c-4.864,24.407,17.656,51.444,14.315,63.464
		c-3.34,12.021-41.037,42.56-61.079,43.992c0,0,16.225-8.113,18.133-20.52c0,0-26.59,26.458-46.459,23.012
		c-19.868-3.447-45.966-11.137-38.404-26.379c7.561-15.242,29.033-43.663,13.764-60.23c-15.269-16.568-23.346-22.672-18.542-35.655
		s-12.076-7.157-8.815-20.359C2411.946,1111.466,2523.097,1109.936,2523.097,1109.936z"/>
	<path style="fill:#FFB27D;" d="M2299.305,1293.478c-1.977,0.302-3.729,0.733-2.646,1.557l4.733,4.322l0,0
		c-2.075,0.427-4.188,0.642-6.307,0.642h-14.6c1.725,1.829,3.922,3.857,6.123,6.059c6.681,6.681,31.494,6.84,31.494,6.84
		l3.181-13.361C2321.284,1299.535,2308.226,1292.117,2299.305,1293.478z"/>
</g>
</svg>
